<svg id="Layer_1" xmlns="http://www.w3.org/2000/svg" viewBox="0 0 30 30"><style>.st0{fill:#FFF}</style><path class="st0" d="M21.7 4.1H8.3C6 4.1 4.1 6 4.1 8.3v13.5C4.1 24.1 6 26 8.3 26h13.4c2.3 0 4.2-1.9 4.2-4.2V8.3c0-2.3-1.9-4.2-4.2-4.2zm1.2 2.5h.5v3.7h-3.7V6.6h3.2zm-11 6.2c.7-1 1.8-1.6 3.1-1.6s2.4.6 3.1 1.6c.5.6.7 1.4.7 2.2 0 2.1-1.7 3.9-3.9 3.9S11 17.2 11 15c.1-.8.4-1.6.9-2.2zm11.9 8.9c0 1.2-.9 2.1-2.1 2.1H8.3c-1.2 0-2.1-.9-2.1-2.1v-9h3.3c-.3.7-.5 1.5-.5 2.3 0 3.3 2.7 6 6 6s6-2.7 6-6c0-.8-.2-1.6-.4-2.2h3.3v8.9z"/></svg>