<svg id="Layer_1" xmlns="http://www.w3.org/2000/svg" viewBox="0 0 170 170"><style>.st0{fill:#3c3c3b;stroke:#3c3c3b;stroke-width:1.6;stroke-miterlimit:10}</style><path class="st0" d="M45 142.3c0 6.1-1.8 11.5-5.3 16.2-3.9 5.1-8.9 7.6-14.8 7.6-6 0-10.9-2.5-14.8-7.6-3.5-4.7-5.3-10.1-5.3-16.2v-17h10.1v17c0 3.4.8 6.4 2.3 9.2 1.9 3.2 4.4 4.8 7.6 4.8 3.2 0 5.8-1.6 7.6-4.8 1.6-2.7 2.3-5.8 2.3-9.2v-18.1c0-9.1-2.6-18-7.8-26.7-4.9-7.1-9.7-14.4-14.5-21.9-5.2-9-7.9-18.9-7.9-29.6V28c0-6.2 1.8-11.6 5.3-16.2 3.8-5.2 8.8-7.9 14.8-7.9s11 2.6 14.8 7.9c3.5 4.6 5.3 10 5.3 16.2v17h-9.8V28c0-3.4-.8-6.5-2.3-9.3-1.9-3.2-4.4-4.8-7.6-4.8-3.2 0-5.8 1.6-7.6 4.8-1.6 2.7-2.3 5.8-2.3 9.3v18.1c0 9.1 2.6 18 7.8 26.7 4.8 7.2 9.6 14.5 14.4 21.9 5.2 9.1 7.9 19 7.9 29.6v18zM99.2 165.3H65.1V4.9h10v150.4h24.1v10zM165.2 165.3h-10.5l-3.6-30.1H129l-3.5 30.1H115L134.6 4.9h10.5l20.1 160.4zm-15.3-40.1l-10-82.8-9.9 82.8h19.9z"/></svg>